<svg width="1024" height="512" viewBox="0 0 1024 512" fill="none" xmlns="http://www.w3.org/2000/svg">
<rect width="1024" height="512" fill="url(#paint0_linear_109_1006)"/>
<path d="M223.506 196.684C222.779 196.237 221.943 196 221.09 196C220.237 196 219.401 196.237 218.674 196.684C212.889 200.446 207.556 204.862 202.78 209.844C192.131 220.881 186.499 232.864 186.499 244.461C186.499 253.642 190.143 262.446 196.63 268.938C203.117 275.43 211.916 279.077 221.09 279.077C230.264 279.077 239.063 275.43 245.55 268.938C252.037 262.446 255.681 253.642 255.681 244.461C255.681 216.813 224.82 197.491 223.506 196.684ZM221.09 269.846C217.42 269.846 213.901 268.387 211.306 265.791C208.711 263.194 207.254 259.672 207.254 256C207.254 242.153 221.09 232.922 221.09 232.922C221.09 232.922 234.926 242.153 234.926 256C234.926 259.672 233.469 263.194 230.874 265.791C228.279 268.387 224.76 269.846 221.09 269.846ZM276.217 312.783C276.033 313.36 275.738 313.896 275.347 314.36C274.957 314.823 274.479 315.205 273.941 315.484C273.403 315.762 272.815 315.932 272.211 315.983C271.608 316.035 271 315.967 270.423 315.783L221.09 300.072L171.757 315.783C171.18 315.966 170.572 316.035 169.969 315.983C169.365 315.932 168.777 315.762 168.239 315.483C167.701 315.205 167.223 314.823 166.833 314.36C166.442 313.896 166.147 313.36 165.963 312.783C165.78 312.205 165.712 311.597 165.763 310.993C165.814 310.389 165.984 309.8 166.262 309.262C166.541 308.724 166.922 308.245 167.385 307.855C167.848 307.464 168.384 307.168 168.961 306.984L205.858 295.232L168.961 283.474C168.368 283.304 167.815 283.016 167.335 282.629C166.854 282.241 166.457 281.761 166.165 281.216C165.874 280.672 165.694 280.075 165.638 279.46C165.581 278.845 165.648 278.225 165.835 277.637C166.023 277.048 166.326 276.503 166.727 276.034C167.128 275.565 167.62 275.182 168.172 274.906C168.724 274.63 169.326 274.468 169.942 274.43C170.558 274.391 171.175 274.477 171.757 274.681L221.09 290.386L270.423 274.681C271.005 274.477 271.622 274.391 272.238 274.43C272.854 274.468 273.456 274.63 274.008 274.906C274.56 275.182 275.051 275.565 275.453 276.034C275.854 276.503 276.157 277.048 276.345 277.637C276.532 278.225 276.599 278.845 276.542 279.46C276.486 280.075 276.306 280.672 276.015 281.216C275.723 281.761 275.326 282.241 274.845 282.629C274.365 283.016 273.812 283.304 273.219 283.474L236.322 295.232L273.219 306.984C273.796 307.168 274.332 307.464 274.795 307.854C275.258 308.245 275.64 308.723 275.918 309.262C276.196 309.8 276.366 310.388 276.417 310.993C276.469 311.597 276.4 312.205 276.217 312.783Z" fill="white"/>
<path d="M339.599 290.29C330.711 290.29 322.662 288.352 315.451 284.476C308.324 280.516 302.707 275.081 298.599 268.172C294.574 261.263 292.562 253.469 292.562 244.79C292.562 236.111 294.616 228.317 298.724 221.408C302.833 214.499 308.45 209.106 315.577 205.23C322.788 201.27 330.837 199.29 339.724 199.29C346.935 199.29 353.517 200.554 359.47 203.082C365.423 205.609 370.453 209.275 374.562 214.078L363.997 224.062C357.625 217.153 349.786 213.698 340.479 213.698C334.442 213.698 329.034 215.047 324.255 217.743C319.476 220.355 315.745 224.02 313.062 228.739C310.379 233.457 309.037 238.808 309.037 244.79C309.037 250.772 310.379 256.123 313.062 260.841C315.745 265.56 319.476 269.267 324.255 271.964C329.034 274.576 334.442 275.882 340.479 275.882C349.786 275.882 357.625 272.385 363.997 265.391L374.562 275.503C370.453 280.305 365.381 283.971 359.344 286.498C353.391 289.026 346.809 290.29 339.599 290.29Z" fill="white"/>
<path d="M446.562 222.047V289.407H431.634V280.703C429.042 283.899 425.822 286.296 421.975 287.893C418.212 289.491 414.03 290.29 409.431 290.29C402.908 290.29 397.054 288.86 391.869 286.001C386.768 283.142 382.754 279.105 379.827 273.892C376.983 268.678 375.562 262.623 375.562 255.727C375.562 248.831 376.983 242.818 379.827 237.689C382.754 232.475 386.768 228.438 391.869 225.579C397.054 222.72 402.908 221.29 409.431 221.29C413.78 221.29 417.752 222.047 421.348 223.561C425.028 225.074 428.205 227.303 430.881 230.246V222.047H446.562ZM411.187 276.793C416.957 276.793 421.724 274.859 425.488 270.99C429.251 267.122 431.132 262.034 431.132 255.727C431.132 249.42 429.251 244.332 425.488 240.464C421.724 236.595 416.957 234.661 411.187 234.661C405.417 234.661 400.65 236.595 396.887 240.464C393.207 244.332 391.367 249.42 391.367 255.727C391.367 262.034 393.207 267.122 396.887 270.99C400.65 274.859 405.417 276.793 411.187 276.793Z" fill="white"/>
<path d="M539.85 221.29C548.37 221.29 555.119 223.767 560.096 228.72C565.073 233.589 567.562 240.934 567.562 250.757V289.29H551.744V252.772C551.744 246.895 550.437 242.488 547.822 239.549C545.206 236.527 541.452 235.016 536.559 235.016C531.245 235.016 526.985 236.779 523.779 240.305C520.573 243.747 518.97 248.7 518.97 255.164V289.29H503.153V252.772C503.153 246.895 501.845 242.488 499.23 239.549C496.615 236.527 492.861 235.016 487.968 235.016C482.569 235.016 478.267 236.737 475.061 240.179C471.94 243.621 470.379 248.616 470.379 255.164V289.29H454.562V222.046H469.62V230.609C472.151 227.586 475.314 225.278 479.11 223.683C482.907 222.088 487.125 221.29 491.764 221.29C496.826 221.29 501.297 222.255 505.178 224.186C509.143 226.033 512.264 228.804 514.542 232.497C517.325 228.972 520.911 226.243 525.297 224.312C529.684 222.297 534.535 221.29 539.85 221.29Z" fill="white"/>
<path d="M612.627 221.29C619.138 221.29 624.94 222.726 630.033 225.598C635.208 228.47 639.257 232.524 642.179 237.761C645.101 242.998 646.562 249.038 646.562 255.88C646.562 262.722 645.101 268.804 642.179 274.125C639.257 279.362 635.208 283.417 630.033 286.289C624.94 289.161 619.138 290.597 612.627 290.597C603.611 290.597 596.474 287.556 591.214 281.474V314.29H575.562V222.05H590.463V230.919C593.051 227.71 596.223 225.302 599.98 223.697C603.82 222.092 608.036 221.29 612.627 221.29ZM610.874 277.039C616.634 277.039 621.351 275.097 625.024 271.211C628.78 267.325 630.659 262.215 630.659 255.88C630.659 249.545 628.78 244.434 625.024 240.549C621.351 236.663 616.634 234.721 610.874 234.721C607.117 234.721 603.736 235.607 600.731 237.381C597.726 239.071 595.347 241.52 593.593 244.73C591.84 247.94 590.964 251.657 590.964 255.88C590.964 260.103 591.84 263.82 593.593 267.03C595.347 270.24 597.726 272.731 600.731 274.505C603.736 276.195 607.117 277.039 610.874 277.039Z" fill="white"/>
<path d="M680.687 210.1C674.103 210.1 670.812 213.736 670.812 221.008V225.067H689.187V237.751H671.187V292.29H655.562V220.755C655.562 213.567 657.645 207.86 661.812 203.632C665.978 199.404 671.895 197.29 679.562 197.29C685.478 197.29 690.145 198.516 693.562 200.968L689.187 212.891C686.687 211.031 683.853 210.1 680.687 210.1Z" fill="white"/>
<path d="M700.793 224.502H717.199V292.29H700.793V224.502ZM709.062 213.331C706.087 213.331 703.593 212.443 701.58 210.666C699.568 208.804 698.562 206.519 698.562 203.811C698.562 201.103 699.568 198.86 701.58 197.083C703.593 195.221 706.087 194.29 709.062 194.29C712.037 194.29 714.53 195.179 716.543 196.956C718.555 198.648 719.562 200.806 719.562 203.43C719.562 206.223 718.555 208.592 716.543 210.539C714.618 212.401 712.124 213.331 709.062 213.331Z" fill="white"/>
<path d="M741.581 234.023C746.125 226.868 754.118 223.29 765.562 223.29V238.496C764.215 238.24 762.995 238.112 761.902 238.112C755.759 238.112 750.963 239.944 747.513 243.607C744.063 247.184 742.338 252.381 742.338 259.196V292.29H726.562V224.057H741.581V234.023Z" fill="white"/>
<path d="M811.29 278.725C818.633 278.725 824.753 276.251 829.648 271.303L838.004 281.157C835.05 284.825 831.252 287.598 826.609 289.475C821.967 291.352 816.734 292.29 810.91 292.29C803.483 292.29 796.942 290.797 791.286 287.811C785.631 284.825 781.242 280.687 778.12 275.398C775.081 270.023 773.562 263.966 773.562 257.226C773.562 250.572 775.039 244.6 777.993 239.31C781.031 233.935 785.167 229.755 790.4 226.769C795.718 223.783 801.71 222.29 808.378 222.29C814.708 222.29 820.448 223.698 825.597 226.513C830.83 229.243 834.965 233.21 838.004 238.414C841.042 243.533 842.562 249.548 842.562 256.458L790.78 266.696C792.384 270.62 794.958 273.606 798.503 275.654C802.048 277.701 806.31 278.725 811.29 278.725ZM808.378 235.087C802.554 235.087 797.828 237.007 794.198 240.846C790.653 244.685 788.881 249.846 788.881 256.33V256.458L827.116 249.036C826.019 244.856 823.782 241.486 820.406 238.926C817.114 236.367 813.105 235.087 808.378 235.087Z" fill="white"/>
<defs>
<linearGradient id="paint0_linear_109_1006" x1="899.959" y1="512" x2="128.193" y2="-143.952" gradientUnits="userSpaceOnUse">
<stop offset="0.0276735"/>
<stop offset="0.44785" stop-color="#4D2C76"/>
<stop offset="1" stop-color="#3B59B7"/>
</linearGradient>
</defs>
</svg>
