<svg width="179" height="37" viewBox="0 0 179 37" fill="none" xmlns="http://www.w3.org/2000/svg">
<path d="M0 14.4682C0 6.07755 5.82875 0 14.1801 0C17.7089 0 20.7672 0.927011 23.1589 2.76981C25.0409 4.22052 25.0409 6.49461 23.8646 7.3572C23.4333 7.71007 22.9236 7.8277 22.4531 7.8277C21.5513 7.8277 20.6495 7.3572 19.7085 6.61224C18.2186 5.47519 16.3366 4.80865 14.1801 4.80865C8.96543 4.80865 5.29314 8.97897 5.29314 14.4682C5.29314 19.9573 8.97874 23.839 14.1935 23.839C17.9183 23.839 20.7413 21.4473 21.6431 17.8009H15.8402C14.4679 17.8009 13.3309 16.703 13.3309 15.2523C13.3309 13.88 14.4679 12.7822 15.8402 12.7822H24.7405C26.1128 12.7822 27.2107 13.88 27.2107 15.2523C27.2107 23.1724 21.8391 28.7792 14.1935 28.7792C5.84206 28.7792 0 22.8588 0 14.4682Z" fill="#080A11"/>
<path d="M46.8557 20.0978H34.8188C35.4853 22.6071 37.4849 24.2539 40.0727 24.2539C41.5626 24.2539 42.7781 24.0186 43.9543 23.3129C44.5817 22.96 45.209 22.8032 45.7187 22.8032C47.0518 22.8032 47.9536 23.8226 47.9536 24.9596C47.9536 28.0571 42.2684 28.8021 40.0727 28.8021C33.9954 28.8021 29.6824 24.4499 29.6824 18.3334C29.6824 12.2169 33.8385 7.86475 39.6806 7.86475C45.2874 7.86475 49.2867 11.9032 49.2867 17.5884C49.2867 19.5881 47.8752 20.0978 46.8557 20.0978ZM39.6806 12.4129C37.2889 12.4129 35.4461 14.0205 34.8188 16.5298H44.268C43.8759 14.0597 42.0723 12.4129 39.6806 12.4129Z" fill="#080A11"/>
<path d="M72.6174 10.364V28.0668C72.6174 28.4589 72.2645 28.8117 71.8724 28.8117H68.3045C67.9124 28.8117 67.5595 28.4589 67.5595 28.0668V26.2434C65.952 27.8509 63.7563 28.7919 61.2078 28.7919C55.6794 28.7919 51.7585 24.4398 51.7585 18.3233C51.7585 12.2068 55.6794 7.85461 61.2078 7.85461C63.7563 7.85461 65.952 8.79562 67.5595 10.4032V10.2855C67.5595 8.87403 68.775 7.85461 70.0689 7.85461C71.4804 7.85461 72.6174 8.99166 72.6174 10.364ZM67.6771 18.3233C67.6771 14.8337 65.4031 12.4028 62.2272 12.4028C58.9729 12.4028 56.6988 14.8337 56.6988 18.3233C56.6988 21.8128 58.9729 24.2437 62.2272 24.2437C65.4031 24.2437 67.6771 21.8128 67.6771 18.3233Z" fill="#080A11"/>
<path d="M84.4994 7.82764H85.6757C86.8911 7.82764 87.8713 8.80785 87.8713 10.0233C87.8713 11.2388 86.8911 12.219 85.6757 12.219H84.4994C81.598 12.219 80.1473 14.1794 80.1473 16.924L80.1473 28.0008C80.1473 28.3929 79.7944 28.7457 79.4023 28.7457H75.8343C75.4422 28.7457 75.0894 28.3929 75.0894 28.0008L75.0894 16.8064C75.0894 11.5132 78.5397 7.82764 84.4994 7.82764Z" fill="#080A11"/>
<path d="M90.3432 28.0149V2.50934C90.3432 1.13704 91.4803 0 92.8918 0C94.2641 0 95.4011 1.13704 95.4011 2.50934V28.0149C95.4011 28.407 95.0482 28.7599 94.6561 28.7599H91.0882C90.6961 28.7599 90.3432 28.407 90.3432 28.0149Z" fill="#080A11"/>
<path d="M124.412 15.2187C123.966 14.7728 123.243 14.7836 122.765 15.1955C117.163 20.0264 110.992 16.9859 108.407 14.6465C111.973 17.5383 114.876 15.5086 115.987 14.2335L121.532 8.6886C122.695 7.52568 124.58 7.52568 125.743 8.6886L133.148 16.0935C134.311 17.2564 134.311 19.1419 133.148 20.3048L125.708 27.7447C124.24 29.4564 122.66 28.9077 121.497 27.7447L119.805 26.0524C119.46 25.7076 119.081 25.3952 118.641 25.1871C117.427 24.6144 114.917 23.8136 112.604 25.7061C112.604 25.7061 113.18 23.9335 116.408 21.6033C118.96 19.7614 121.33 20.4585 122.736 21.4035C123.272 21.7633 124.018 21.7844 124.474 21.3282L126.696 19.1065C127.139 18.6635 127.139 17.9453 126.696 17.5023L124.412 15.2187Z" fill="url(#paint0_linear_3796_2481)"/>
<path d="M107.498 21.4099C107.944 21.8559 108.667 21.8454 109.142 21.4297C114.696 16.561 120.37 19.1984 122.955 21.5376C119.438 19.2407 117.034 21.1201 115.923 22.3952L110.378 27.94C109.215 29.103 107.33 29.103 106.167 27.94L98.7618 20.5352C97.5989 19.3723 97.5989 17.4868 98.7618 16.3239L106.202 8.88391C107.967 7.20952 109.25 7.72099 110.413 8.8839L112.105 10.5762C112.45 10.921 112.829 11.2335 113.27 11.4416C114.483 12.0142 116.955 12.8527 119.268 10.9602L115.502 15.0254C112.95 16.8673 110.58 16.1702 109.174 15.2251C108.638 14.8654 107.892 14.8442 107.436 15.3004L105.214 17.5222C104.771 17.9651 104.771 18.6833 105.214 19.1263L107.498 21.4099Z" fill="url(#paint1_linear_3796_2481)"/>
<path d="M146.99 12.3758C143.814 12.3758 141.54 14.8067 141.54 18.3747C141.54 21.8643 143.814 24.2952 146.99 24.2952C150.244 24.2952 152.518 21.8643 152.518 18.3747C152.518 14.8067 150.244 12.3758 146.99 12.3758ZM136.6 34.1365V18.3747C136.6 12.1798 140.912 7.82764 146.99 7.82764C153.106 7.82764 157.458 12.1798 157.458 18.3747C157.458 24.4912 153.538 28.8434 148.009 28.8434C145.461 28.8434 143.265 27.9416 141.657 26.334V34.1365C141.657 35.5088 140.52 36.6458 139.148 36.6458C137.737 36.6458 136.6 35.5088 136.6 34.1365Z" fill="#080A11"/>
<path d="M162.855 10.1617V8.89392H168.828V10.1617H166.601V16.1666H165.081V10.1617H162.855ZM169.811 8.89392H171.708L173.711 13.7803H173.796L175.799 8.89392H177.695V16.1666H176.203V11.433H176.143L174.261 16.1311H173.245L171.363 11.4152H171.303V16.1666H169.811V8.89392Z" fill="#434956"/>
<defs>
<linearGradient id="paint0_linear_3796_2481" x1="121.108" y1="7.81641" x2="119.33" y2="23.9653" gradientUnits="userSpaceOnUse">
<stop stop-color="#16C9FF"/>
<stop offset="1" stop-color="#0130FC"/>
</linearGradient>
<linearGradient id="paint1_linear_3796_2481" x1="102.336" y1="11.1396" x2="111.412" y2="30.4213" gradientUnits="userSpaceOnUse">
<stop stop-color="#4F1AFC"/>
<stop offset="1" stop-color="#3C83FB"/>
</linearGradient>
</defs>
</svg>
